<?xml version="1.0" encoding="UTF-8"?>
<svg width="16px" height="16px" viewBox="0 0 16 16" version="1.1" xmlns="http://www.w3.org/2000/svg" xmlns:xlink="http://www.w3.org/1999/xlink">
    <!-- Generator: Sketch 52.6 (67491) - http://www.bohemiancoding.com/sketch -->
    <title>file</title>
    <desc>Created with Sketch.</desc>
    <g id="web-admin-English" stroke="none" stroke-width="1" fill="none" fill-rule="evenodd">
        <g id="Home-Page" transform="translate(-60.000000, -546.000000)" fill="#DEDCDC">
            <g id="Group-8" transform="translate(60.000000, 540.000000)">
                <g id="file" transform="translate(0.000000, 6.000000)">
                    <path d="M15.998953,3.23841258 C15.997536,3.14228739 15.9479421,3.0480997 15.8537137,2.97741207 L12.0293566,0.109718964 C12.0291899,0.109593964 12.0290649,0.109562714 12.0288982,0.109468964 C11.9385872,0.0418125817 11.8138106,0 11.6760729,0 L1.0518076,0 C0.471808933,0 0,0.353750691 0,0.78865779 L0,15.2113422 C0,15.6462181 0.471767258,16 1.05176593,16 L14.9482289,16 C15.5281859,16 15.9999949,15.6462493 15.9999949,15.2113422 L15.9999949,3.24228758 C16.0000782,3.24091258 15.9991197,3.23975633 15.998953,3.23841258 Z M12.1756794,1.27909625 L14.2942145,2.86766185 L12.228274,2.86766185 C12.1993095,2.86766185 12.1756794,2.84994307 12.1756794,2.82822427 L12.1756794,1.27909625 Z M15.0008235,15.2113735 C15.0008235,15.2330923 14.9772351,15.2507798 14.9482706,15.2507798 L1.0518076,15.2507798 C1.02284309,15.2507798 0.999254729,15.2330923 0.999254729,15.2113735 L0.999254729,0.78865779 C0.999254729,0.766938998 1.02284309,0.749251463 1.0518076,0.749251463 L11.1764664,0.749251463 L11.1764664,2.82822427 C11.1764664,3.26310012 11.648317,3.61694456 12.2283157,3.61694456 L15.0008652,3.61694456 L15.0008652,15.2113735 L15.0008235,15.2113735 Z" id="Shape" fill-rule="nonzero"></path>
                    <path d="M12.492401,5 L3.5076413,5 C3.22731219,5 3,5.22384885 3,5.5 C3,5.77610944 3.22731219,6 3.5076413,6 L12.4923587,6 C12.7726878,6 13,5.77610944 13,5.5 C13.0000423,5.22384885 12.7726878,5 12.492401,5 Z" id="Path"></path>
                    <path d="M12.492401,7 L3.5076413,7 C3.22731219,7 3,7.22389056 3,7.5 C3,7.77610944 3.22731219,8 3.5076413,8 L12.4923587,8 C12.7726878,8 13,7.77610944 13,7.5 C13.0000423,7.22389056 12.7726878,7 12.492401,7 Z" id="Path"></path>
                    <path d="M12.492401,10 L3.5076413,10 C3.22731219,10 3,10.2238906 3,10.5 C3,10.7761512 3.22731219,11 3.5076413,11 L12.4923587,11 C12.7726878,11 13,10.7761512 13,10.5 C13.0000423,10.2239323 12.7726878,10 12.492401,10 Z" id="Path"></path>
                    <path d="M7.53914996,12 L3.46085004,12 C3.20635995,12 3,12.2238906 3,12.5 C3,12.7761512 3.20635995,13 3.46085004,13 L7.53914996,13 C7.79364005,13 8,12.7761512 8,12.5 C8,12.2238488 7.79364005,12 7.53914996,12 Z" id="Path"></path>
                </g>
            </g>
        </g>
    </g>
</svg>