<?xml version="1.0" encoding="UTF-8"?>
<svg width="18px" height="17px" viewBox="0 0 18 17" version="1.1" xmlns="http://www.w3.org/2000/svg" xmlns:xlink="http://www.w3.org/1999/xlink">
    <!-- Generator: Sketch 52.6 (67491) - http://www.bohemiancoding.com/sketch -->
    <title>chat</title>
    <desc>Created with Sketch.</desc>
    <g id="web-admin-English" stroke="none" stroke-width="1" fill="none" fill-rule="evenodd">
        <g id="Home-Page" transform="translate(-56.000000, -474.000000)" fill="#FFFFFF">
            <g id="Group-8" transform="translate(56.000000, 466.000000)">
                <g id="chat" transform="translate(0.000000, 8.000000)">
                    <path d="M3,7.0395 L6.9,7.0395 C7.0659,7.0395 7.2,6.9051 7.2,6.7395 C7.2,6.5739 7.0659,6.4395 6.9,6.4395 L3,6.4395 C2.8341,6.4395 2.7,6.5739 2.7,6.7395 C2.7,6.9051 2.8341,7.0395 3,7.0395 Z" id="Path"></path>
                    <path d="M10.8,8.2395 L3,8.2395 C2.8341,8.2395 2.7,8.3739 2.7,8.5395 C2.7,8.7051 2.8341,8.8395 3,8.8395 L10.8,8.8395 C10.9659,8.8395 11.1,8.7051 11.1,8.5395 C11.1,8.3739 10.9659,8.2395 10.8,8.2395 Z" id="Path"></path>
                    <path d="M10.8,10.0395 L3,10.0395 C2.8341,10.0395 2.7,10.1739 2.7,10.3395 C2.7,10.5051 2.8341,10.6395 3,10.6395 L10.8,10.6395 C10.9659,10.6395 11.1,10.5051 11.1,10.3395 C11.1,10.1739 10.9659,10.0395 10.8,10.0395 Z" id="Path"></path>
                    <path d="M16.2216,0.1605 L5.979,0.1395 C4.998,0.1395 4.2,0.9375 4.2,1.9185 L4.2,3.4557 L1.779,3.4608 C0.798,3.4608 0,4.2588 0,5.2398 L0,11.5821 C0,12.5631 0.798,13.3608 1.779,13.3608 L3.6,13.3608 L3.6,16.3608 C3.6,16.4847 3.6762,16.596 3.792,16.6407 C3.8271,16.6542 3.8637,16.6608 3.9,16.6608 C3.9828,16.6608 4.0641,16.6263 4.122,16.5627 L7.0332,13.3602 L12.021,13.3398 C13.002,13.3398 13.8,12.5418 13.8,11.5611 L13.8,11.5272 L15.378,13.263 C15.4359,13.3266 15.5172,13.3611 15.6,13.3611 C15.6363,13.3611 15.6729,13.3545 15.708,13.341 C15.8238,13.2963 15.9,13.185 15.9,13.0611 L15.9,10.0611 L16.221,10.0611 C17.202,10.0611 18,9.2631 18,8.2824 L18,1.9395 C18,0.9588 17.2023,0.1608 16.2216,0.1605 Z M13.2,11.5608 C13.2,12.2109 12.6711,12.7395 12.0198,12.7395 L6.8988,12.7605 C6.8148,12.7608 6.7344,12.7965 6.678,12.8586 L4.2,15.5847 L4.2,13.0605 C4.2,12.8949 4.0659,12.7605 3.9,12.7605 L1.779,12.7605 C1.1289,12.7605 0.6,12.2316 0.6,11.5818 L0.6,5.2395 C0.6,4.5894 1.1289,4.0605 1.7796,4.0605 L4.5,4.0548 C4.5,4.0548 4.5,4.0548 4.5,4.0548 C4.5003,4.0548 4.5003,4.0548 4.5006,4.0548 L12.021,4.0392 C12.6711,4.0392 13.2,4.5681 13.2,5.2182 L13.2,10.7505 L13.2,11.5608 Z M17.4,8.2818 C17.4,8.9319 16.8711,9.4605 16.221,9.4605 L15.6,9.4605 C15.4341,9.4605 15.3,9.5949 15.3,9.7605 L15.3,12.2847 L13.8,10.6347 L13.8,5.2185 C13.8,4.2375 13.002,3.4395 12.0204,3.4395 L4.8,3.4542 L4.8,1.9182 C4.8,1.2681 5.3289,0.7392 5.9784,0.7392 L16.2207,0.7602 C16.221,0.7602 16.221,0.7602 16.2213,0.7602 C16.8714,0.7602 17.4003,1.2891 17.4003,1.9392 L17.4003,8.2818 L17.4,8.2818 Z" id="Shape" fill-rule="nonzero"></path>
                </g>
            </g>
        </g>
    </g>
</svg>