<?xml version="1.0" encoding="UTF-8"?>
<svg width="15px" height="17px" viewBox="0 0 15 17" version="1.1" xmlns="http://www.w3.org/2000/svg" xmlns:xlink="http://www.w3.org/1999/xlink">
    <!-- Generator: Sketch 52.6 (67491) - http://www.bohemiancoding.com/sketch -->
    <title>copy</title>
    <desc>Created with Sketch.</desc>
    <g id="web-admin-English" stroke="none" stroke-width="1" fill="none" fill-rule="evenodd">
        <g id="Home-Page" transform="translate(-60.000000, -321.000000)" fill="#FFFFFF">
            <g id="Group-9" transform="translate(60.000000, 314.000000)">
                <g id="copy" transform="translate(0.000000, 7.000000)">
                    <path d="M10.4773176,3 L1.52268245,3 C0.682445759,3 0,3.60114172 0,4.34127575 L0,15.6587242 C0,16.3988583 0.682445759,17 1.52268245,17 L10.4773176,17 C11.3175542,17 12,16.3988583 12,15.6587242 L12,4.34127575 C11.9960552,3.60114172 11.3136095,3 10.4773176,3 Z M10.9309665,15.6552494 C10.9309665,15.8776371 10.7258383,16.0583271 10.4733728,16.0583271 L1.51873767,16.0583271 C1.26627219,16.0583271 1.06114398,15.8776371 1.06114398,15.6552494 L1.06114398,4.34127575 C1.06114398,4.11888806 1.26627219,3.93819806 1.51873767,3.93819806 L10.4733728,3.93819806 C10.7258383,3.93819806 10.9309665,4.11888806 10.9309665,4.34127575 L10.9309665,15.6552494 Z" id="Shape" fill-rule="nonzero"></path>
                    <path d="M13.4773176,0 L4.52268245,0 C3.68244576,0 3,0.601141723 3,1.34127575 C3,1.60188632 3.23668639,1.81037478 3.53254438,1.81037478 C3.82840237,1.81037478 4.06508876,1.60188632 4.06508876,1.34127575 C4.06508876,1.11888806 4.27021696,0.938198064 4.52268245,0.938198064 L13.4773176,0.938198064 C13.729783,0.938198064 13.9349112,1.11888806 13.9349112,1.34127575 L13.9349112,12.6587242 C13.9349112,12.8811119 13.729783,13.0618019 13.4773176,13.0618019 C13.1814596,13.0618019 12.9447732,13.2702904 12.9447732,13.530901 C12.9447732,13.7915115 13.1814596,14 13.4773176,14 C14.3175542,14 15,13.3988583 15,12.6587242 L15,1.34127575 C15,0.601141723 14.3175542,0 13.4773176,0 Z" id="Path"></path>
                </g>
            </g>
        </g>
    </g>
</svg>