<?xml version="1.0" encoding="UTF-8"?>
<svg width="18px" height="18px" viewBox="0 0 18 18" version="1.1" xmlns="http://www.w3.org/2000/svg" xmlns:xlink="http://www.w3.org/1999/xlink">
    <!-- Generator: Sketch 52.6 (67491) - http://www.bohemiancoding.com/sketch -->
    <title>discussion</title>
    <desc>Created with Sketch.</desc>
    <g id="web-admin-English" stroke="none" stroke-width="1" fill="none" fill-rule="evenodd">
        <g id="Home-Page" transform="translate(-58.000000, -395.000000)" fill="#FFFFFF">
            <g id="Group-8" transform="translate(58.000000, 390.000000)">
                <g id="discussion" transform="translate(0.000000, 5.000000)">
                    <polygon id="Path" points="5.76068115 16.5087433 6.28692627 16.5087433 6.28692627 17.9474029 5.76068115 17.9474029"></polygon>
                    <polygon id="Path" points="11.7130737 16.5087433 12.2393188 16.5087433 12.2393188 17.9474029 11.7130737 17.9474029"></polygon>
                    <path d="M16.3082428,12.2155609 L15.500061,12.2155609 L15.500061,11.7559204 C16.0029602,11.4072418 16.333374,10.8262024 16.333374,10.16922 L16.333374,9.16918945 C16.333374,8.10502625 15.4676514,7.2393036 14.4034882,7.2393036 C13.3394623,7.2393036 12.4737396,8.10502625 12.4737396,9.16918945 L12.4737396,10.16922 C12.4737396,10.8262024 12.8040161,11.4072418 13.3070526,11.7559204 L13.3070526,12.2154236 L12.4985962,12.2154236 C11.6930237,12.2154236 11.0091248,12.7850647 10.8447418,13.5513611 L10.3596954,13.5513611 L10.3596954,12.8199463 C11.0201111,12.3792572 11.456131,11.6275177 11.456131,10.7756653 L11.456131,9.45991515 C11.456131,8.10557557 10.3543396,7.00378418 9,7.00378418 C7.64566038,7.00378418 6.54386903,8.10557557 6.54386903,9.45991515 L6.54386903,10.7756653 C6.54386903,11.6275177 6.9798889,12.3791199 7.64030457,12.8199463 L7.64030457,13.5513611 L7.15525819,13.5513611 C6.99087523,12.7850647 6.30697634,12.2154236 5.50140381,12.2154236 L4.69294738,12.2154236 L4.69294738,11.7559204 C5.19598389,11.4072418 5.52626037,10.8262024 5.52626037,10.16922 L5.52626037,9.16918945 C5.52626037,8.10502625 4.66053771,7.2393036 3.59651183,7.2393036 C2.53234863,7.2393036 1.66662598,8.10502625 1.66662598,9.16918945 L1.66662598,10.16922 C1.66662598,10.8262024 1.99703981,11.4072418 2.49993896,11.7559204 L2.49993896,12.2155609 L1.69175721,12.2155609 C0.758880633,12.2155609 0,12.9744415 0,13.9073181 L0,17.9474029 L0.526382438,17.9474029 L0.526382438,13.9073181 C0.526382438,13.2646179 1.04905702,12.741806 1.69175721,12.741806 L2.52658083,12.741806 C2.63616943,13.231659 3.07411193,13.5990143 3.59651183,13.5990143 C4.11891173,13.5990143 4.55685427,13.231659 4.66644287,12.741806 L5.50140381,12.741806 C6.01693727,12.741806 6.45996094,13.0803223 6.61102295,13.5513611 L6.49374391,13.5513611 C5.31216429,13.5513611 4.35086058,14.5126648 4.35086058,15.6942444 L4.35086058,17.9474029 L4.87724305,17.9474029 L4.87724305,15.6942444 C4.87724305,14.8028412 5.60234071,14.0777435 6.49374391,14.0777435 L7.66049196,14.0777435 C7.77090452,14.7172852 8.32928467,15.2054901 9,15.2054901 C9.67071533,15.2054901 10.2290955,14.7172852 10.339508,14.0777435 L11.5062561,14.0777435 C12.3976593,14.0777435 13.1227569,14.8028412 13.1227569,15.6942444 L13.1227569,17.9474029 L13.6491394,17.9474029 L13.6491394,15.6942444 C13.6491394,14.5126648 12.6878357,13.5513611 11.5062561,13.5513611 L11.3889771,13.5513611 C11.5400391,13.0803223 11.9832001,12.741806 12.4985962,12.741806 L13.3335571,12.741806 C13.4431457,13.231659 13.8810883,13.5990143 14.4034882,13.5990143 C14.9258881,13.5990143 15.3638306,13.231659 15.4734192,12.741806 L16.3082428,12.741806 C16.950943,12.741806 17.4736176,13.2646179 17.4736176,13.9073181 L17.4736176,17.9474029 L18,17.9474029 L18,13.9073181 C18,12.9744415 17.2411194,12.2155609 16.3082428,12.2155609 Z M3.59651183,7.76568604 C4.36253358,7.76568604 4.98669434,8.38256836 4.99946593,9.14556885 C4.81723024,8.89233398 4.52362061,8.73934938 4.2063904,8.73934938 L2.98649598,8.73934938 C2.66940309,8.73934938 2.37579346,8.8924713 2.19355773,9.14556885 C2.20619201,8.38256836 2.83049012,7.76568604 3.59651183,7.76568604 Z M4.16670226,12.5024414 C4.16670226,12.816925 3.91085817,13.0726318 3.59651183,13.0726318 C3.28216553,13.0726318 3.0263214,12.816925 3.0263214,12.5024414 L3.0263214,12.0130005 C3.20663454,12.0687561 3.39807129,12.0989685 3.59651183,12.0989685 C3.79495238,12.0989685 3.98638916,12.0687561 4.16670226,12.0130005 L4.16670226,12.5024414 Z M3.59651183,11.5727234 C2.84394836,11.5727234 2.22802734,10.9772644 2.19465636,10.2328033 L2.58975218,9.50221252 C2.6685791,9.35623167 2.82060243,9.2655945 2.98649598,9.2655945 L4.2063904,9.2655945 C4.37228395,9.2655945 4.52444456,9.35623167 4.60327148,9.50221252 L4.9983673,10.2328033 C4.96499632,10.9772644 4.34907531,11.5727234 3.59651183,11.5727234 Z M7.07011414,9.45991515 C7.07011414,8.39575195 7.9358368,7.5300293 9,7.5300293 C10.0641632,7.5300293 10.9298859,8.39575195 10.9298859,9.45991515 L10.9298859,9.73594666 L10.860672,9.60823058 C10.6502838,9.21917725 10.2448883,8.97747803 9.80255127,8.97747803 L8.19744873,8.97747803 C7.7551117,8.97747803 7.3497162,9.21917725 7.13919066,9.60823058 L7.07011414,9.73594666 L7.07011414,9.45991515 Z M9.83331299,13.8457947 C9.83331299,14.3054352 9.45950316,14.679245 9,14.679245 C8.54049684,14.679245 8.16668701,14.3054352 8.16668701,13.8457947 L8.16668701,13.0860901 C8.42706299,13.1802979 8.70762635,13.2317963 9,13.2317963 C9.29237365,13.2317963 9.57293701,13.1802979 9.83331299,13.0860901 L9.83331299,13.8457947 Z M9,12.7055512 C7.95726014,12.7055512 7.10554504,11.8740234 7.07176209,10.839386 L7.60226442,9.85858154 C7.72050477,9.63967894 7.9486084,9.50372314 8.19744873,9.50372314 L9.80255127,9.50372314 C10.0513916,9.50372314 10.2794952,9.63981629 10.3977356,9.85858154 L10.9282379,10.839386 C10.894455,11.8740234 10.0427399,12.7055512 9,12.7055512 Z M14.4034882,7.76568604 C15.1695099,7.76568604 15.793808,8.38256836 15.8064423,9.14556885 C15.6242065,8.89233398 15.3305969,8.73934938 15.013504,8.73934938 L13.7936096,8.73934938 C13.4763794,8.73934938 13.1827698,8.8924713 13.0005341,9.14556885 C13.0133057,8.38256836 13.6374664,7.76568604 14.4034882,7.76568604 Z M14.9736786,12.5024414 C14.9736786,12.816925 14.7178345,13.0726318 14.4034882,13.0726318 C14.0891418,13.0726318 13.8332977,12.816925 13.8332977,12.5024414 L13.8332977,12.0130005 C14.0136108,12.0687561 14.2050476,12.0989685 14.4034882,12.0989685 C14.6019287,12.0989685 14.7933655,12.0687561 14.9736786,12.0130005 L14.9736786,12.5024414 Z M14.4034882,11.5727234 C13.6509247,11.5727234 13.0350037,10.9772644 13.0016327,10.2328033 L13.3967285,9.50221252 C13.4756928,9.35623167 13.627716,9.2655945 13.7936096,9.2655945 L15.013504,9.2655945 C15.1793976,9.2655945 15.3314209,9.35623167 15.4102478,9.50221252 L15.8053436,10.2328033 C15.7719727,10.9772644 15.1560516,11.5727234 14.4034882,11.5727234 Z" id="Shape" fill-rule="nonzero"></path>
                    <polygon id="Path" points="16.4023132 14.5262604 16.9285584 14.5262604 16.9285584 17.9474029 16.4023132 17.9474029"></polygon>
                    <polygon id="Path" points="1.07144163 14.5262604 1.59768675 14.5262604 1.59768675 17.9474029 1.07144163 17.9474029"></polygon>
                    <path d="M2.40353395,5.75244141 L3.26005555,4.21051025 L4.77191162,4.21051025 L4.77191162,0 L0.03515625,0 L0.03515625,4.21051025 L1.546875,4.21051025 L2.40353395,5.75244141 Z M0.561401367,0.526382438 L4.2456665,0.526382438 L4.2456665,3.68426514 L2.95037842,3.68426514 L2.40353395,4.66864014 L1.85655213,3.68426514 L0.561401367,3.68426514 L0.561401367,0.526382438 Z" id="Shape" fill-rule="nonzero"></path>
                    <path d="M13.2631073,0 L13.2631073,4.21051025 L14.7749634,4.21051025 L15.6316223,5.75244141 L16.4881439,4.21051025 L18,4.21051025 L18,0 L13.2631073,0 Z M17.4736176,3.68426514 L16.1784668,3.68426514 L15.6316223,4.66864014 L15.0846405,3.68426514 L13.7894897,3.68426514 L13.7894897,0.526382438 L17.4736176,0.526382438 L17.4736176,3.68426514 Z" id="Shape" fill-rule="nonzero"></path>
                    <path d="M9.01757813,5.75244141 L9.87409972,4.21051025 L12.7718811,4.21051025 L12.7718811,0 L5.26313781,0 L5.26313781,4.21051025 L8.16091917,4.21051025 L9.01757813,5.75244141 Z M5.78952028,0.526382438 L12.245636,0.526382438 L12.245636,3.68426514 L9.56442263,3.68426514 L9.01757813,4.66864014 L8.4705963,3.68426514 L5.78952028,3.68426514 L5.78952028,0.526382438 Z" id="Shape" fill-rule="nonzero"></path>
                    <polygon id="Path" points="2.22802734 1.40350342 3.63153076 1.40350342 3.63153076 1.92988586 2.22802734 1.92988586"></polygon>
                    <polygon id="Path" points="1.17539979 1.40350342 1.70178223 1.40350342 1.70178223 1.92988586 1.17539979 1.92988586"></polygon>
                    <polygon id="Path" points="1.17539979 2.45613097 2.57890321 2.45613097 2.57890321 2.98251345 1.17539979 2.98251345"></polygon>
                    <polygon id="Path" points="3.10528564 2.45613097 3.63153076 2.45613097 3.63153076 2.98251345 3.10528564 2.98251345"></polygon>
                    <polygon id="Path" points="15.4561157 1.40350342 16.8596191 1.40350342 16.8596191 1.92988586 15.4561157 1.92988586"></polygon>
                    <polygon id="Path" points="14.4034882 1.40350342 14.9298706 1.40350342 14.9298706 1.92988586 14.4034882 1.92988586"></polygon>
                    <polygon id="Path" points="14.4034882 2.45613097 15.8069916 2.45613097 15.8069916 2.98251345 14.4034882 2.98251345"></polygon>
                    <polygon id="Path" points="16.333374 2.45613097 16.8596191 2.45613097 16.8596191 2.98251345 16.333374 2.98251345"></polygon>
                    <polygon id="Path" points="9.54382324 1.22813416 10.0702057 1.22813416 10.0702057 1.75437928 9.54382324 1.75437928"></polygon>
                    <polygon id="Path" points="10.5964508 1.22813416 11.4737091 1.22813416 11.4737091 1.75437928 10.5964508 1.75437928"></polygon>
                    <polygon id="Path" points="6.56144715 1.22813416 9.01757812 1.22813416 9.01757812 1.75437928 6.56144715 1.75437928"></polygon>
                    <polygon id="Path" points="10.9473267 2.31578065 11.4737091 2.31578065 11.4737091 2.84216309 10.9473267 2.84216309"></polygon>
                    <polygon id="Path" points="6.56144715 2.31578065 7.96495057 2.31578065 7.96495057 2.84216309 6.56144715 2.84216309"></polygon>
                    <polygon id="Path" points="8.49119569 2.31578065 10.4210815 2.31578065 10.4210815 2.84216309 8.49119569 2.84216309"></polygon>
                </g>
            </g>
        </g>
    </g>
</svg>