<?xml version="1.0" encoding="UTF-8"?>
<svg width="37px" height="37px" viewBox="0 0 37 37" version="1.1" xmlns="http://www.w3.org/2000/svg" xmlns:xlink="http://www.w3.org/1999/xlink">
    <!-- Generator: Sketch 52.6 (67491) - http://www.bohemiancoding.com/sketch -->
    <title>help</title>
    <desc>Created with Sketch.</desc>
    <g id="web-admin-English" stroke="none" stroke-width="1" fill="none" fill-rule="evenodd">
        <g id="Home-Page" transform="translate(-649.000000, -98.000000)" fill="#FFFFFF">
            <g id="Group" transform="translate(234.000000, 72.000000)">
                <g id="Group-5" transform="translate(258.000000, 0.000000)">
                    <g id="Group-4" transform="translate(14.000000, 9.000000)">
                        <g id="Group-3" transform="translate(127.000000, 7.000000)">
                            <g id="help" transform="translate(16.000000, 10.000000)">
                                <path d="M37,25.0400391 C37,20.4486313 34.3659744,16.3509445 30.4210053,14.3577118 C30.2984924,23.1611328 23.1611328,30.2984924 14.3577118,30.4210053 C16.3509445,34.3659744 20.4486313,37 25.0400391,37 C27.1927642,37 29.2862091,36.4266739 31.1255951,35.3373261 L36.9477768,36.9477768 L35.3373261,31.1255951 C36.4266739,29.2862091 37,27.1927642 37,25.0400391 Z" id="Path"></path>
                                <path d="M28.2558594,14.1279297 C28.2558594,6.33763887 21.9182205,0 14.1279297,0 C6.33763887,0 0,6.33763887 0,14.1279297 C0,16.6668243 0.675796473,19.1388169 1.95907593,21.3090439 L0.051940918,28.2036362 L6.94681547,26.2967834 C9.11704252,27.5800629 11.5890351,28.2558594 14.1279297,28.2558594 C21.9182205,28.2558594 28.2558594,21.9182205 28.2558594,14.1279297 Z M11.9599609,10.8398438 L9.79199219,10.8398438 C9.79199219,8.44886776 11.7369537,6.50390625 14.1279297,6.50390625 C16.5189057,6.50390625 18.4638672,8.44886776 18.4638672,10.8398438 C18.4638672,12.0533982 17.9501038,13.2198105 17.0538406,14.0395737 L15.2119141,15.7253952 L15.2119141,17.4160156 L13.0439453,17.4160156 L13.0439453,14.7706985 L15.5901794,12.4401321 C16.0452271,12.0237579 16.2958984,11.455513 16.2958984,10.8398438 C16.2958984,9.64435576 15.3234177,8.671875 14.1279297,8.671875 C12.9324417,8.671875 11.9599609,9.64435576 11.9599609,10.8398438 Z M13.0439453,19.5839844 L15.2119141,19.5839844 L15.2119141,21.7519531 L13.0439453,21.7519531 L13.0439453,19.5839844 Z" id="Shape" fill-rule="nonzero"></path>
                            </g>
                        </g>
                    </g>
                </g>
            </g>
        </g>
    </g>
</svg>