<?xml version="1.0" encoding="UTF-8"?>
<svg width="16px" height="17px" viewBox="0 0 16 17" version="1.1" xmlns="http://www.w3.org/2000/svg" xmlns:xlink="http://www.w3.org/1999/xlink">
    <!-- Generator: Sketch 52.6 (67491) - http://www.bohemiancoding.com/sketch -->
    <title>invitation</title>
    <desc>Created with Sketch.</desc>
    <g id="web-admin-English" stroke="none" stroke-width="1" fill="none" fill-rule="evenodd">
        <g id="Home-Page" transform="translate(-60.000000, -357.000000)" fill="#FFFFFF">
            <g id="Group-8" transform="translate(60.000000, 352.000000)">
                <g id="invitation" transform="translate(0.000000, 5.000000)">
                    <path d="M10.7771414,2.75710227 L4.22285857,2.75710227 C4.0997648,2.75710227 4,2.86583779 4,3 C4,3.13416221 4.09979452,3.24289773 4.22285857,3.24289773 L10.7771414,3.24289773 C10.9002352,3.24289773 11,3.13416221 11,3 C11,2.86583779 10.9002352,2.75710227 10.7771414,2.75710227 Z" id="Path"></path>
                    <path d="M10.7771414,4.75710227 L4.22285857,4.75710227 C4.0997648,4.75710227 4,4.86583779 4,5 C4,5.13416221 4.09979452,5.24289773 4.22285857,5.24289773 L10.7771414,5.24289773 C10.9002352,5.24289773 11,5.13416221 11,5 C11,4.86583779 10.9002352,4.75710227 10.7771414,4.75710227 Z" id="Path"></path>
                    <path d="M7.74686022,5.75710227 L4.25317353,5.75710227 C4.11333558,5.75710227 4,5.86583779 4,6 C4,6.1341946 4.11336934,6.24289773 4.25317353,6.24289773 L7.74682646,6.24289773 C7.88663065,6.24289773 7.99999999,6.13416221 7.99999999,6 C8.00003375,5.8658054 7.88666441,5.75710227 7.74686022,5.75710227 Z" id="Path"></path>
                    <path d="M15.403401,4.87460303 L14.0242656,3.90354064 L14.0242656,3.53747476 C14.0242656,2.64872324 13.3250495,1.92565596 12.4656143,1.92565596 L11.2151357,1.92565596 L8.88184653,0.28289173 C8.34615647,-0.0942972433 7.65387564,-0.0942972433 7.11815347,0.28289173 L4.7869192,1.92426142 L4.78785033,1.92568916 L3.53438567,1.92568916 C2.67495053,1.92568916 1.97573437,2.64875644 1.97573437,3.53750796 L1.97573437,3.90354064 L0.596598959,4.87456982 C0.223022247,5.1375728 0,5.57366435 0,6.04103336 L0,15.9421111 C0,16.2868937 0.134436244,17 1.02299335,17 L14.9770067,17 C15.5411123,17 16,16.5254259 16,15.9421111 L16,6.04103336 C16.0000321,5.57366435 15.7769456,5.13760601 15.403401,4.87460303 Z M7.38917719,0.694479275 C7.76028159,0.433302474 8.23981474,0.433302474 8.61082281,0.694479275 L10.3595214,1.92568916 L5.64054279,1.92568916 L7.38917719,0.694479275 Z M2.45732243,3.53754116 C2.45732243,2.92334736 2.94048379,2.42370478 3.53438567,2.42370478 L12.4655822,2.42370478 C13.0594841,2.42370478 13.5426455,2.92334736 13.5426455,3.53750796 L13.5426455,5.42179266 C13.5426455,5.55935375 13.6504642,5.67078387 13.7834234,5.67078387 C13.9163827,5.67078387 14.0242014,5.55932054 14.0242014,5.42179266 L14.0242014,4.5060469 C14.0242014,4.5060469 15.213739,5.34944277 15.2498284,5.38556791 L9.28188025,9.12080125 C8.49122047,9.61450045 7.50881164,9.61456685 6.71937197,9.12156493 L2.45732243,6.42336884 L2.45732243,3.53754116 Z M1.97576648,4.50598049 L1.97576648,6.11843015 L0.777013875,5.35956976 C0.805493681,5.3333724 1.97576648,4.50598049 1.97576648,4.50598049 Z M0.994288787,16.5005566 L1.84820135,15.4865957 C1.93553514,15.3828687 1.92506793,15.2256181 1.8247625,15.135272 C1.72448918,15.0449592 1.57239353,15.0558498 1.48502763,15.1595104 L0.569339257,16.2467842 C0.514017154,16.1589948 0.481523846,16.0544709 0.481523846,15.9420779 L0.481523846,6.04103336 C0.481523846,5.95138458 0.494495483,5.86362837 0.518640707,5.77992297 L6.30129355,9.44078102 L2.20604514,14.3034309 C2.11871134,14.4071578 2.12917856,14.5644085 2.22948398,14.6547545 C2.27510947,14.6958269 2.43243872,14.7631299 2.56921885,14.6305161 L6.72881172,9.69146559 C7.13147829,9.88992145 7.56564282,9.98929879 7.99996789,9.98929879 C8.43971922,9.98929879 8.87947054,9.88716557 9.28647169,9.68366283 L15.0131282,16.5001914 C15.0011198,16.5009883 1.00385697,16.5010879 0.994288787,16.5005566 Z M15.518444,15.9421111 C15.518444,16.0522795 15.4870745,16.1547779 15.4337431,16.2415048 L9.71354035,9.43271263 L15.4913128,5.81651296 C15.5091006,5.88909527 15.5184762,5.96436705 15.5184762,6.04103336 L15.5184762,15.9421111 L15.518444,15.9421111 Z" id="Shape" fill-rule="nonzero"></path>
                </g>
            </g>
        </g>
    </g>
</svg>