<?xml version="1.0" encoding="UTF-8"?>
<svg width="18px" height="19px" viewBox="0 0 18 19" version="1.1" xmlns="http://www.w3.org/2000/svg" xmlns:xlink="http://www.w3.org/1999/xlink">
    <!-- Generator: Sketch 52.6 (67491) - http://www.bohemiancoding.com/sketch -->
    <title>Group 21</title>
    <desc>Created with Sketch.</desc>
    <g id="web-admin-English" stroke="none" stroke-width="1" fill="none" fill-rule="evenodd">
        <g id="Home-Page" transform="translate(-59.000000, -281.000000)" fill="#FFFFFF">
            <g id="meeting" transform="translate(59.000000, 276.000000)">
                <g id="Group-21" transform="translate(0.000000, 5.000000)">
                    <rect id="Rectangle" x="8.7" y="9.9" width="1" height="1"></rect>
                    <path d="M16.7403,6.3243 C17.1453,5.9412 17.4,5.4003 17.4,4.8 C17.4,3.642 16.458,2.7 15.3,2.7 C14.142,2.7 13.2,3.642 13.2,4.8 C13.2,5.5368 13.5822,6.1851 14.1579,6.5598 C13.7613,6.8301 13.5,7.2849 13.5,7.8 L13.5,9.9 L12.3,9.9 L12.3,8.4 C12.3,7.3266 11.49,6.4398 10.449,6.3162 C10.8492,5.9337 11.1,5.3961 11.1,4.8 C11.1,3.642 10.158,2.7 9,2.7 C7.842,2.7 6.9,3.642 6.9,4.8 C6.9,5.3961 7.1508,5.9337 7.551,6.3162 C6.51,6.4398 5.7,7.3266 5.7,8.4 L5.7,9.9 L4.5,9.9 L4.5,7.8 C4.5,7.2849 4.2387,6.8301 3.8421,6.5598 C4.4178,6.1851 4.8,5.5368 4.8,4.8 C4.8,3.642 3.858,2.7 2.7,2.7 C1.542,2.7 0.6,3.642 0.6,4.8 C0.6,5.4003 0.8547,5.9412 1.2597,6.3243 C0.5472,6.4401 0,7.0551 0,7.8 L0,12.3 C0,13.0242 0.5163,13.6302 1.2,13.7697 L1.2,18.3 L1.8,18.3 L1.8,13.8 L4.5,13.8 L4.5,18 C4.5,18.1656 4.6344,18.3 4.8,18.3 L6.6,18.3 C6.7656,18.3 6.9,18.1656 6.9,18 L6.9,13.2 L8.7,13.2 L8.7,17.7 L7.5,17.7 L7.5,18.3 L10.5,18.3 L10.5,17.7 L9.3,17.7 L9.3,13.2 L11.1,13.2 L11.1,18 C11.1,18.1656 11.2344,18.3 11.4,18.3 L13.2,18.3 C13.3656,18.3 13.5,18.1656 13.5,18 L13.5,13.8 L16.2,13.8 L16.2,18.3 L16.8,18.3 L16.8,13.7697 C17.4837,13.6302 18,13.0245 18,12.3 L18,7.8 C18,7.0551 17.4528,6.4401 16.7403,6.3243 Z M13.8,4.8 C13.8,3.9729 14.4729,3.3 15.3,3.3 C16.1271,3.3 16.8,3.9729 16.8,4.8 C16.8,5.6271 16.1271,6.3 15.3,6.3 C14.4729,6.3 13.8,5.6271 13.8,4.8 Z M7.5,4.8 C7.5,3.9729 8.1729,3.3 9,3.3 C9.8271,3.3 10.5,3.9729 10.5,4.8 C10.5,5.6271 9.8271,6.3 9,6.3 C8.1729,6.3 7.5,5.6271 7.5,4.8 Z M9.4671,6.9 L9,8.1456 L8.5329,6.9 L9.4671,6.9 Z M6.3,8.4 C6.3,7.5729 6.9729,6.9 7.8,6.9 L7.8921,6.9 L8.7192,9.1053 C8.763,9.2223 8.8749,9.3 9,9.3 C9.1251,9.3 9.237,9.2223 9.2811,9.1053 L10.1079,6.9 L10.2,6.9 C11.0271,6.9 11.7,7.5729 11.7,8.4 L11.7,9.9 L10.5,9.9 C10.3344,9.9 10.2,10.0344 10.2,10.2 L10.2,11.4 L7.8,11.4 L7.8,10.2 C7.8,10.0344 7.6656,9.9 7.5,9.9 L6.3,9.9 L6.3,8.4 Z M1.2,4.8 C1.2,3.9729 1.8729,3.3 2.7,3.3 C3.5271,3.3 4.2,3.9729 4.2,4.8 C4.2,5.6271 3.5271,6.3 2.7,6.3 C1.8729,6.3 1.2,5.6271 1.2,4.8 Z M6.3,17.7 L5.1,17.7 L5.1,13.5 C5.1,13.3344 4.9656,13.2 4.8,13.2 L1.5,13.2 C1.0038,13.2 0.6,12.7962 0.6,12.3 L0.6,7.8 C0.6,7.3038 1.0038,6.9 1.5,6.9 L3,6.9 C3.4962,6.9 3.9,7.3038 3.9,7.8 L3.9,10.2 C3.9,10.3656 4.0344,10.5 4.2,10.5 L7.2,10.5 L7.2,11.4 L3,11.4 L3,8.7 L2.4,8.7 L2.4,11.7 C2.4,11.8656 2.5344,12 2.7,12 L5.4,12 C5.8962,12 6.3,12.4038 6.3,12.9 L6.3,17.7 Z M11.1336,12.6 L6.8664,12.6 C6.8211,12.3789 6.7302,12.1743 6.5994,12 L7.5,12 L10.5,12 L11.4006,12 C11.2698,12.1743 11.1789,12.3789 11.1336,12.6 Z M17.4,12.3 C17.4,12.7962 16.9962,13.2 16.5,13.2 L13.2,13.2 C13.0344,13.2 12.9,13.3344 12.9,13.5 L12.9,17.7 L11.7,17.7 L11.7,12.9 C11.7,12.4038 12.1038,12 12.6,12 L15.3,12 C15.4656,12 15.6,11.8656 15.6,11.7 L15.6,8.7 L15,8.7 L15,11.4 L10.8,11.4 L10.8,10.5 L13.8,10.5 C13.9656,10.5 14.1,10.3656 14.1,10.2 L14.1,7.8 C14.1,7.3038 14.5038,6.9 15,6.9 L16.5,6.9 C16.9962,6.9 17.4,7.3038 17.4,7.8 L17.4,12.3 Z" id="Shape" fill-rule="nonzero"></path>
                    <path d="M7.5,0 L3.3,0 C3.1344,0 3,0.1344 3,0.3 L3,1.8 C3,1.9656 3.1344,2.1 3.3,2.1 L4.5,2.1 L4.5,2.7 C4.5,2.8137 4.5642,2.9175 4.6659,2.9685 C4.7082,2.9895 4.7544,3 4.8,3 C4.8636,3 4.9269,2.9796 4.98,2.94 L6.0999,2.1 L7.5,2.1 C7.6656,2.1 7.8,1.9656 7.8,1.8 L7.8,0.3 C7.8,0.1344 7.6656,0 7.5,0 Z M7.2,1.5 L6,1.5 C5.9352,1.5 5.8719,1.521 5.82,1.56 L5.1,2.1 L5.1,1.8 C5.1,1.6344 4.9656,1.5 4.8,1.5 L3.6,1.5 L3.6,0.6 L7.2,0.6 L7.2,1.5 Z" id="Shape" fill-rule="nonzero"></path>
                    <rect id="Rectangle" x="10.5" y="0.9" width="1" height="1"></rect>
                    <rect id="Rectangle" x="11.7" y="0.9" width="1" height="1"></rect>
                    <rect id="Rectangle" x="12.9" y="0.9" width="1" height="1"></rect>
                </g>
            </g>
        </g>
    </g>
</svg>