<?xml version="1.0" encoding="UTF-8"?>
<svg width="20px" height="13px" viewBox="0 0 20 13" version="1.1" xmlns="http://www.w3.org/2000/svg" xmlns:xlink="http://www.w3.org/1999/xlink">
    <!-- Generator: Sketch 52.6 (67491) - http://www.bohemiancoding.com/sketch -->
    <title>group</title>
    <desc>Created with Sketch.</desc>
    <g id="web-admin-English" stroke="none" stroke-width="1" fill="none" fill-rule="evenodd">
        <g id="Home-Page" transform="translate(-57.000000, -660.000000)" fill="#FFFFFF" fill-rule="nonzero">
            <g id="Group-17" transform="translate(57.000000, 652.000000)">
                <g id="Group-8">
                    <g id="group" transform="translate(0.000000, 8.000000)">
                        <path d="M14.053433,6.76024406 L12.2978247,6.05078305 C12.1737938,6.0006776 12.0937114,5.88856298 12.0937114,5.76520393 L12.0937114,5.32685446 C12.6834527,4.8996029 13.0625145,4.2416758 13.0625145,3.50437843 L13.0625145,2.88732682 C13.2567989,2.78971642 13.3854221,2.60108843 13.3854221,2.38982508 L13.3854221,2.32994027 C13.3854221,1.04521883 12.2358697,0 10.8229075,0 L10.1770925,0 C8.76413034,0 7.61457792,1.04521883 7.61457792,2.32994027 L7.61457792,2.87329876 C7.61457792,3.05899661 7.70247516,3.22722348 7.85567093,3.33486962 C7.88165339,3.35310977 7.90900546,3.3691523 7.93748545,3.38303386 L7.93748545,3.5043418 C7.93748545,4.24163917 8.31650703,4.89956628 8.90620804,5.32678121 L8.90620804,5.76516731 C8.90620804,5.88852635 8.8260854,6.00064097 8.70209471,6.05074642 L6.94648644,6.76020743 C6.37152896,6.99253119 6,7.51233865 6,8.08441255 L6,11.7252624 C6,11.8769706 6.1352699,11.9999634 6.30212156,11.9999634 C6.46897323,11.9999634 6.60424313,11.8769706 6.60424313,11.7252624 L6.60424313,8.08444918 C6.60424313,8.05262049 6.60674067,8.02115808 6.61036613,7.98995205 L7.41932683,8.72549133 C7.54521081,8.83998669 7.61457792,8.99217102 7.61457792,9.15409808 L7.61457792,11.725299 C7.61457792,11.8770072 7.74984782,12 7.91669949,12 C8.08355116,12 8.21882105,11.8770072 8.21882105,11.725299 L8.21882105,9.15409808 C8.21882105,8.84544408 8.08665294,8.55528662 7.84660729,8.33702755 L6.88219497,7.46010884 C6.96908513,7.37813808 7.07333721,7.31019537 7.19193,7.2622509 L8.91793036,6.56476686 L10.1979187,7.72858325 L10.1979187,11.7252624 C10.1979187,11.8769706 10.3331886,11.9999634 10.5000403,11.9999634 C10.666892,11.9999634 10.8021618,11.8769706 10.8021618,11.7252624 L10.8021618,7.72861987 L12.0821502,6.56480348 L13.8081103,7.2622509 C13.9267031,7.31019537 14.0309552,7.37813808 14.1178453,7.46014547 L13.153433,8.33702755 C12.9133873,8.55528662 12.7812192,8.84544408 12.7812192,9.15409808 L12.7812192,11.725299 C12.7812192,11.8770072 12.9164891,12 13.0833408,12 C13.2501925,12 13.3854624,11.8770072 13.3854624,11.725299 L13.3854624,9.15409808 C13.3854624,8.99220765 13.4547892,8.83998669 13.5807135,8.72549133 L14.3896339,7.98998868 C14.3932593,8.0211947 14.3957569,8.05258387 14.3957569,8.08441255 L14.3957569,11.7252624 C14.3957569,11.8769706 14.5310268,11.9999634 14.6978784,11.9999634 C14.8647301,11.9999634 15,11.8769706 15,11.7252624 L15,8.08444918 C14.9998792,7.51237528 14.6283905,6.99256781 14.053433,6.76024406 Z M10.4999194,7.22635664 L9.37679259,6.20512836 C9.46219228,6.07448059 9.51041089,5.92332181 9.51041089,5.76520393 L9.51041089,5.65341896 C9.81507027,5.76981891 10.1493779,5.8343187 10.4999597,5.8343187 C10.8505416,5.8343187 11.1848089,5.76985554 11.489428,5.65345559 L11.489428,5.76520393 C11.489428,5.92335843 11.5376466,6.07448059 11.6230866,6.20516499 L10.4999194,7.22635664 Z M10.4999597,5.28488015 C9.42017724,5.28491678 8.5416883,4.48615965 8.5416883,3.50437843 L8.5416883,3.38083625 C8.73021216,3.31289355 8.91422433,3.20477125 9.09038134,3.05698214 C9.21296213,2.95409747 9.22065616,2.78030333 9.10746128,2.66881137 C8.99430669,2.55735603 8.80320473,2.55036032 8.68054337,2.65324498 C8.52944231,2.78008357 8.37846209,2.86201771 8.23191299,2.89681316 C8.2283681,2.89765558 8.22574971,2.89802185 8.2238967,2.89816836 C8.22172142,2.89432254 8.21878077,2.88626465 8.21878077,2.87333539 L8.21878077,2.32997689 C8.21878077,1.34819567 9.09726972,0.549438542 10.1770522,0.549438542 L10.8228672,0.549438542 C11.90269,0.549438542 12.7811387,1.34819567 12.7811387,2.32997689 L12.7811387,2.3898617 C12.7811387,2.39876201 12.7752574,2.40649027 12.7675231,2.40788209 C10.9583788,2.73276175 10.0509668,2.12047163 9.74481694,1.84210799 C9.62682839,1.73482811 9.43552502,1.73482811 9.31757676,1.84210799 C9.19958822,1.94938787 9.19958822,2.12332852 9.31757676,2.23057177 C10.2557649,3.08360981 11.6247784,3.09899307 12.4582311,3.00793886 L12.4582311,3.5043418 C12.4582311,4.48612302 11.5797422,5.28488015 10.4999597,5.28488015 Z" id="Shape"></path>
                        <path d="M5,5.96680925 L5,5.35340289 C5,4.60492088 4.62408128,3.94603026 4.05765221,3.56685446 C4.09262655,3.45075291 4.11089011,3.32914276 4.11089011,3.20684403 C4.11089011,2.54137367 3.58767986,2 2.94453646,2 C2.30139306,2 1.77818281,2.54141193 1.77818281,3.20684403 C1.77818281,3.33067293 1.79629849,3.4510972 1.83134677,3.56693097 C1.26495467,3.94606851 0.889072921,4.60495914 0.889072921,5.35340289 L0.889072921,5.96669449 C0.889072921,6.69149713 1.24151521,7.33240828 1.77814584,7.71655712 L1.77814584,8.34748392 C1.77814584,8.47192488 1.71133967,8.58378021 1.60379172,8.6394401 L0.644733145,9.13559729 C0.247038642,9.34140497 0,9.75500956 0,10.215093 L0,12.7130551 C0,12.8715041 0.124147824,12.9999617 0.277280726,12.9999617 C0.430413629,12.9999617 0.554561453,12.8715041 0.554561453,12.7130551 L0.554561453,10.3391897 L1.00627024,10.8065797 C1.12180388,10.9261624 1.18546753,11.0851087 1.18546753,11.2542306 L1.18546753,12.7130551 C1.18546753,12.8715041 1.30961536,12.9999617 1.46274826,12.9999617 C1.61588116,12.9999617 1.74002899,12.8715041 1.74002899,12.7130551 L1.74002899,11.2542306 C1.74002899,10.9318623 1.61869094,10.6288124 1.39841913,10.4008555 L0.769731296,9.75034255 C0.766699694,9.7472057 0.763446267,9.74448965 0.760340723,9.74154408 C0.799788527,9.70550861 0.844042531,9.67414015 0.892769997,9.64889237 L1.85182857,9.15273518 C1.90096272,9.12729612 1.94669555,9.09726656 1.98932284,9.06390889 L2.66725573,9.76541471 L2.66725573,12.7130934 C2.66725573,12.8715423 2.79140356,13 2.94453646,13 C3.09766936,13 3.22181719,12.8715423 3.22181719,12.7130934 L3.22181719,9.76537646 L3.89978705,9.06387063 C3.94245131,9.09726656 3.98814717,9.12729612 4.03728132,9.15269692 L4.30173319,9.28953226 C4.3415507,9.31015128 4.38384526,9.3199061 4.42554828,9.3199061 C4.52725485,9.3199061 4.6251904,9.26175969 4.67376998,9.16126587 C4.74227681,9.01953399 4.68674672,8.84719875 4.54977004,8.77635194 L4.28531817,8.63951661 C4.17773325,8.58385672 4.11092708,8.47200139 4.11092708,8.34759868 L4.11092708,7.71667188 C4.64755771,7.33252304 5,6.69157364 5,5.96680925 Z M2.94453646,2.57381325 C3.28189468,2.57381325 3.55632866,2.85781255 3.55632866,3.20684403 C3.55632866,3.24528951 3.55300129,3.28296992 3.54664232,3.31988524 C3.356095,3.25936707 3.15397584,3.2265832 2.94453646,3.2265832 C2.73539285,3.2265832 2.53353248,3.2592523 2.34328093,3.31961746 C2.33688499,3.28270214 2.33274427,3.24521301 2.33274427,3.20684403 C2.33274427,2.8577743 2.60717824,2.57381325 2.94453646,2.57381325 Z M2.94453646,3.80043471 C3.772127,3.80043471 4.44543855,4.4971205 4.44543855,5.35344114 L4.44543855,5.4574161 C3.29102646,5.82312641 2.60303752,4.914474 2.57364576,4.87465136 C2.52539891,4.80812728 2.45164224,4.76650669 2.37148963,4.76061555 C2.29133701,4.7548009 2.21258928,4.7851365 2.15576522,4.84393323 C1.89109152,5.11779517 1.63185253,5.24988698 1.44463258,5.31365676 C1.46515136,4.47565989 2.12984872,3.80043471 2.94453646,3.80043471 Z M2.94453646,9.24075813 L2.30379616,8.5777743 C2.32250336,8.50379065 2.33274427,8.42667014 2.33274427,8.34752217 L2.33274427,7.99730482 C2.52606439,8.05981221 2.73158486,8.09351417 2.94453646,8.09351417 C3.15748806,8.09351417 3.36300853,8.05981221 3.55632866,7.99730482 L3.55632866,8.34752217 C3.55632866,8.42667014 3.56656956,8.5038289 3.58527676,8.5777743 L2.94453646,9.24075813 Z M2.94453646,7.51970092 C2.11694592,7.51970092 1.44363437,6.82301513 1.44363437,5.96669449 L1.44363437,5.90724744 C1.66475651,5.85468614 1.99261324,5.73254043 2.33462977,5.44792906 C2.45563508,5.56605808 2.62858432,5.71096505 2.84881915,5.835253 C3.10931515,5.98226395 3.46907765,6.11825769 3.90851215,6.11825769 C4.07550909,6.11825769 4.25418879,6.09817423 4.44307242,6.05203965 C4.40007542,6.86884368 3.7444359,7.51970092 2.94453646,7.51970092 Z" id="Shape"></path>
                        <path d="M19.3083498,7.68903605 L17.6435583,6.9160826 C17.5281775,6.8624948 17.4565058,6.75480357 17.4565058,6.63503206 L17.4565058,6.24356486 C17.8461986,5.92229584 18.0923893,5.45411153 18.0923893,4.93333382 L18.0923893,4.61891521 C18.099251,4.61891521 18.1059938,4.61909936 18.1128556,4.61909936 C18.2771413,4.61909936 18.410331,4.49542386 18.410331,4.34287356 L18.410331,3.75241329 C18.410331,2.78613862 17.5637159,2 16.5231072,2 L15.8872238,2 C14.8466151,2 14,2.78613862 14,3.75241329 L14,4.34287356 C14,4.49542386 14.1331897,4.61909936 14.2974754,4.61909936 C14.2999346,4.61909936 14.307074,4.6190257 14.3179417,4.61862057 L14.3179417,4.93333382 C14.3179417,5.45414836 14.5641721,5.92233267 14.9538649,6.24360169 L14.9538649,6.63506889 C14.9538649,6.75487723 14.8821931,6.86256846 14.7667727,6.91611943 C14.6198198,6.98432879 14.5602454,7.15024842 14.6337416,7.28670396 C14.6858593,7.38349348 14.7909277,7.43947524 14.9000416,7.43947524 C14.9447423,7.43947524 14.9901172,7.43008357 15.0328347,7.41026897 C15.0855473,7.38577695 15.1346109,7.35686532 15.1803428,7.32474946 L15.9076901,8.00013995 L15.9076901,11.7237742 C15.9076901,11.8763245 16.0408797,12 16.2051655,12 C16.3694513,12 16.5026409,11.8763245 16.5026409,11.7237742 L16.5026409,8.00006629 L17.2299485,7.3246758 C17.2757201,7.35682849 17.324744,7.38574012 17.3774567,7.41019531 L18.9883852,8.15814111 L18.4997719,8.61185119 C18.2634575,8.8313218 18.1332822,9.1230899 18.1332822,9.43345721 L18.1332822,11.7237005 C18.1332822,11.8762508 18.2664719,11.9999263 18.4307576,11.9999263 C18.5950434,11.9999263 18.7282331,11.8762508 18.7282331,11.7237005 L18.7282331,9.43345721 C18.7282331,9.27066813 18.7964938,9.11760221 18.9204815,9.0024713 L19.3833136,8.57270079 C19.3973545,8.62267924 19.4050491,8.67479384 19.4050491,8.72827116 L19.4050491,11.7237005 C19.4050491,11.8762508 19.5382388,11.9999263 19.7025246,11.9999263 C19.8668103,11.9999263 20,11.8762508 20,11.7237005 L20,8.72827116 C20.0000397,8.2853523 19.7350089,7.88714519 19.3083498,7.68903605 Z M14.5949112,4.00981891 L14.5949112,3.75237646 L14.5949509,3.75237646 C14.5949509,3.0907236 15.174671,2.55241477 15.8872238,2.55241477 L16.5231072,2.55241477 C17.23566,2.55241477 17.8153801,3.0907236 17.8153801,3.75237646 L17.8153801,4.05920808 C16.5222346,3.99442392 15.7418574,3.52716036 15.7342817,3.5225566 C15.6839489,3.49139833 15.6265163,3.47615066 15.5693614,3.47615066 C15.492573,3.47615066 15.4164193,3.50369958 15.3589074,3.55706641 C15.0742829,3.82135925 14.7954096,3.94857044 14.5949112,4.00981891 Z M16.2051655,7.49501505 L15.5177593,6.85671247 C15.537829,6.78548305 15.5488157,6.71123355 15.5488157,6.63503206 L15.5488157,6.57621438 C15.7533202,6.64689135 15.9744436,6.68571029 16.2051655,6.68571029 C16.4358874,6.68571029 16.6570108,6.64689135 16.8615153,6.57621438 L16.8615153,6.63503206 C16.8615153,6.71123355 16.8724624,6.78548305 16.8925717,6.85671247 L16.2051655,7.49501505 Z M16.2051655,6.13329552 C15.4926127,6.13329552 14.9128926,5.59502352 14.9128926,4.93333382 L14.9128926,4.48802101 C15.1212444,4.41071461 15.3639843,4.28781255 15.6110079,4.092392 C15.9233968,4.24332178 16.5769701,4.50418942 17.4974384,4.59037187 L17.4974384,4.93333382 C17.4974384,5.59498669 16.9177183,6.13329552 16.2051655,6.13329552 Z" id="Shape"></path>
                    </g>
                </g>
            </g>
        </g>
    </g>
</svg>