<?xml version="1.0" encoding="UTF-8"?>
<svg width="18px" height="18px" viewBox="0 0 18 18" version="1.1" xmlns="http://www.w3.org/2000/svg" xmlns:xlink="http://www.w3.org/1999/xlink">
    <!-- Generator: Sketch 52.6 (67491) - http://www.bohemiancoding.com/sketch -->
    <title>news</title>
    <desc>Created with Sketch.</desc>
    <g id="web-admin-English" stroke="none" stroke-width="1" fill="none" fill-rule="evenodd">
        <g id="Home-Page" transform="translate(-58.000000, -584.000000)" fill="#FFFFFF">
            <g id="Group-8" transform="translate(58.000000, 578.000000)">
                <g id="news" transform="translate(0.000000, 6.000000)">
                    <path d="M17.625,0.1125 L3.0288,0.1125 C2.88382525,0.1125 2.7663,0.230025253 2.7663,0.375 L2.7663,2.7663 L0.375,2.7663 C0.230025253,2.7663 0.1125,2.88382525 0.1125,3.0288 L0.1125,16.2981 C0.113161786,17.1759585 0.824641515,17.8874382 1.7025,17.8881 L16.2987,17.8881 C17.1765927,17.8875208 17.8881208,17.1759927 17.8887,16.2981 L17.8887,0.375 C17.8887007,0.305172258 17.8608799,0.238221854 17.8113918,0.188958914 C17.7619036,0.139695974 17.694827,0.112180787 17.625,0.1125 Z M1.7019,17.3625 C1.11371674,17.3625 0.6369,16.8856833 0.6369,16.2975 L0.6369,3.2913 L14.7081,3.2913 L14.7081,16.2981 C14.7075979,16.6917198 14.8537518,17.0714097 15.11805,17.3631 L1.7019,17.3625 Z M17.3619,16.2975 C17.3426261,16.8714462 16.8717697,17.3267559 16.2975,17.3267559 C15.7232303,17.3267559 15.2523739,16.8714462 15.2331,16.2975 L15.2331,3.0288 C15.2331,2.88382525 15.1155747,2.7663 14.9706,2.7663 L3.2913,2.7663 L3.2913,0.6375 L17.3625,0.6375 L17.3619,16.2975 Z" id="Shape" fill-rule="nonzero"></path>
                    <polygon id="Path" points="2.3064 5.6865 3.46455 7.10865 3.7854 7.10865 3.7854 5.00865 3.39855 5.00865 3.39855 6.43065 2.24055 5.00865 1.9194 5.00865 1.9194 7.10865 2.3064 7.10865"></polygon>
                    <polygon id="Path" points="6.07455 6.78165 4.88955 6.78165 4.88955 6.20265 5.90355 6.20265 5.90355 5.88165 4.88955 5.88165 4.88955 5.3355 6.03255 5.3355 6.03255 5.00865 4.49955 5.00865 4.49955 7.10865 6.07455 7.10865"></polygon>
                    <polygon id="Path" points="7.54155 7.10865 8.06955 5.5545 8.58855 7.10865 9.00255 7.10865 9.69855 5.00865 9.3267 5.00865 8.78955 6.61365 8.25855 5.00865 7.89855 5.00865 7.35555 6.6045 6.83355 5.00865 6.42855 5.00865 7.12455 7.10865"></polygon>
                    <path d="M11.16705,6.73965 C11.0598247,6.79675607 10.9387648,6.82273459 10.81755,6.81465 C10.6893361,6.81424048 10.562089,6.79244117 10.44105,6.75015 C10.3269304,6.71286006 10.2199264,6.65656883 10.12455,6.58365 L9.98955,6.88665 C10.0950224,6.97195222 10.2171198,7.0343292 10.34805,7.0698 C10.5002573,7.11597797 10.6584926,7.13923299 10.81755,7.1388 C10.9776729,7.1431788 11.136982,7.11453381 11.28555,7.05465 C11.4007674,7.00887888 11.500272,6.93073392 11.57205,6.82965 C11.6347711,6.73666562 11.6677295,6.62680456 11.66655,6.51465 C11.6728301,6.39713012 11.6348302,6.28152506 11.56005,6.19065 C11.4901299,6.11144536 11.4021437,6.05026664 11.30355,6.0123 C11.1783864,5.96572142 11.050061,5.92812611 10.91955,5.8998 C10.80545,5.8718 10.71545,5.8468 10.64955,5.8248 C10.5895586,5.80608532 10.5339524,5.77547638 10.48605,5.7348 C10.443554,5.69804508 10.4198646,5.64411042 10.42155,5.58795 C10.4202732,5.50402494 10.4629331,5.42553064 10.53405,5.38095 C10.6383214,5.32155336 10.7578451,5.2943604 10.87755,5.3028 C10.9759629,5.30345481 11.0738224,5.31758614 11.1684,5.3448 C11.2693351,5.37318308 11.3661851,5.41447413 11.45655,5.46765 L11.5794,5.16465 C11.4809337,5.10090345 11.3724071,5.05424715 11.2584,5.02665 C11.1348824,4.99474721 11.0078211,4.97861884 10.88025,4.97865 C10.7206547,4.9741662 10.561863,5.00281918 10.4139,5.0628 C10.2989701,5.10910716 10.1999609,5.18779341 10.1289,5.2893 C10.0663348,5.38291799 10.0334056,5.4932045 10.0344,5.6058 C10.0279549,5.72466967 10.0659114,5.84169328 10.1409,5.93415 C10.2099292,6.01371297 10.2975154,6.07502335 10.3959,6.11265 C10.5228221,6.15893948 10.65259,6.19701807 10.7844,6.22665 C10.8984,6.25465 10.9884,6.27965 11.0544,6.30165 C11.1147162,6.32034071 11.1704235,6.35151635 11.2179,6.39315 C11.2603228,6.43060997 11.2839924,6.48492386 11.28255,6.5415 C11.282681,6.62356741 11.2385248,6.69932102 11.16705,6.73965 Z" id="Path"></path>
                    <path d="M13.3212,8.769 L2.025,8.769 C1.88002525,8.769 1.7625,8.88652525 1.7625,9.0315 C1.7625,9.17647475 1.88002525,9.294 2.025,9.294 L13.3212,9.294 C13.4661747,9.294 13.5837,9.17647475 13.5837,9.0315 C13.5837,8.88652525 13.4661747,8.769 13.3212,8.769 Z" id="Path"></path>
                    <path d="M13.3212,10.935 L2.025,10.935 C1.88002525,10.935 1.7625,11.0525253 1.7625,11.1975 C1.7625,11.3424747 1.88002525,11.46 2.025,11.46 L13.3212,11.46 C13.4661747,11.46 13.5837,11.3424747 13.5837,11.1975 C13.5837,11.0525253 13.4661747,10.935 13.3212,10.935 Z" id="Path"></path>
                    <path d="M13.3212,15.2691 L2.025,15.2691 C1.88002525,15.2691 1.7625,15.3866253 1.7625,15.5316 C1.7625,15.6765747 1.88002525,15.7941 2.025,15.7941 L13.3212,15.7941 C13.4661747,15.7941 13.5837,15.6765747 13.5837,15.5316 C13.5837,15.3866253 13.4661747,15.2691 13.3212,15.2691 Z" id="Path"></path>
                    <path d="M13.3212,13.1025 L2.025,13.1025 C1.88002525,13.1025 1.7625,13.2200253 1.7625,13.365 C1.7625,13.5099747 1.88002525,13.6275 2.025,13.6275 L13.3212,13.6275 C13.4661747,13.6275 13.5837,13.5099747 13.5837,13.365 C13.5837,13.2200253 13.4661747,13.1025 13.3212,13.1025 Z" id="Path"></path>
                </g>
            </g>
        </g>
    </g>
</svg>