<?xml version="1.0" encoding="UTF-8"?>
<svg width="18px" height="16px" viewBox="0 0 18 16" version="1.1" xmlns="http://www.w3.org/2000/svg" xmlns:xlink="http://www.w3.org/1999/xlink">
    <!-- Generator: Sketch 52.6 (67491) - http://www.bohemiancoding.com/sketch -->
    <title>newspaper-folded</title>
    <desc>Created with Sketch.</desc>
    <g id="web-admin-English" stroke="none" stroke-width="1" fill="none" fill-rule="evenodd">
        <g id="Home-Page" transform="translate(-58.000000, -206.000000)" fill="#439048">
            <g id="Group-12" transform="translate(36.000000, 197.000000)">
                <g id="newspaper-folded" transform="translate(22.000000, 9.000000)">
                    <path d="M6.80330579,12.5089645 L2.79669421,12.5089645 C2.5776,12.5089645 2.4,12.769454 2.4,13.0908038 C2.4,13.4121536 2.5776,13.672643 2.79669421,13.672643 L6.80330579,13.672643 C7.0224,13.672643 7.2,13.4121536 7.2,13.0908038 C7.2,12.769454 7.0224,12.5089645 6.80330579,12.5089645 Z" id="Path"></path>
                    <path d="M12.8033058,12.5089645 L8.79669421,12.5089645 C8.5776,12.5089645 8.4,12.769454 8.4,13.0908038 C8.4,13.4121536 8.5776,13.672643 8.79669421,13.672643 L12.8033058,13.672643 C13.0223603,13.672643 13.2,13.4121536 13.2,13.0908038 C13.2,12.769454 13.0223603,12.5089645 12.8033058,12.5089645 Z" id="Path"></path>
                    <path d="M13.3808824,2.61769742 L2.81911765,2.61769742 C2.58763897,2.61769742 2.4,2.87818685 2.4,3.19953666 C2.4,3.52088647 2.58763897,3.7813759 2.81911765,3.7813759 L13.3808824,3.7813759 C13.6123191,3.7813759 13.8,3.52088647 13.8,3.19953666 C13.8,2.87818685 13.6123191,2.61769742 13.3808824,2.61769742 Z" id="Path"></path>
                    <path d="M12.8033058,4.36321515 L8.79669421,4.36321515 C8.5776,4.36321515 8.4,4.62370457 8.4,4.94505439 C8.4,5.2664042 8.5776,5.52689363 8.79669421,5.52689363 L12.8033058,5.52689363 C13.0223603,5.52689363 13.2,5.2664042 13.2,4.94505439 C13.2,4.62370457 13.0223603,4.36321515 12.8033058,4.36321515 Z" id="Path"></path>
                    <path d="M12.8033058,6.69057212 L8.79669421,6.69057212 C8.5776,6.69057212 8.4,6.95106155 8.4,7.27241136 C8.4,7.59376117 8.5776,7.8542506 8.79669421,7.8542506 L12.8033058,7.8542506 C13.0223603,7.8542506 13.2,7.59376117 13.2,7.27241136 C13.2,6.95106155 13.0223603,6.69057212 12.8033058,6.69057212 Z" id="Path"></path>
                    <path d="M12.8033058,8.43608984 L8.79669421,8.43608984 C8.5776,8.43608984 8.4,8.69657927 8.4,9.01792909 C8.4,9.3392789 8.5776,9.59976833 8.79669421,9.59976833 L12.8033058,9.59976833 C13.0223603,9.59976833 13.2,9.3392789 13.2,9.01792909 C13.2,8.69657927 13.0223603,8.43608984 12.8033058,8.43608984 Z" id="Path"></path>
                    <path d="M12.8033058,10.7634468 L8.79669421,10.7634468 C8.5776,10.7634468 8.4,11.0239362 8.4,11.3452861 C8.4,11.6666359 8.5776,11.9271253 8.79669421,11.9271253 L12.8033058,11.9271253 C13.0223603,11.9271253 13.2,11.6666359 13.2,11.3452861 C13.2,11.0239362 13.0223603,10.7634468 12.8033058,10.7634468 Z" id="Path"></path>
                    <path d="M6.80330579,10.7634468 L2.79669421,10.7634468 C2.5776,10.7634468 2.4,11.0239362 2.4,11.3452861 C2.4,11.6666359 2.5776,11.9271253 2.79669421,11.9271253 L6.80330579,11.9271253 C7.0224,11.9271253 7.2,11.6666359 7.2,11.3452861 C7.2,11.0239362 7.0224,10.7634468 6.80330579,10.7634468 Z" id="Path"></path>
                    <path d="M6.80330579,4.94505439 L2.79669421,4.94505439 C2.5776,4.94505439 2.4,5.1172788 2.4,5.32974149 L2.4,9.21508123 C2.4,9.42754391 2.5776,9.59976833 2.79669421,9.59976833 L6.80330579,9.59976833 C7.0224,9.59976833 7.2,9.42754391 7.2,9.21508123 L7.2,5.32974149 C7.2,5.1172788 7.0224,4.94505439 6.80330579,4.94505439 Z M6.40661157,8.83039412 L3.19338843,8.83039412 L3.19338843,5.71442859 L6.40661157,5.71442859 L6.40661157,8.83039412 Z" id="Shape" fill-rule="nonzero"></path>
                    <path d="M17.1855204,2.05128205 L15.9638009,2.05128205 L15.9638009,0.820512821 C15.9638009,0.368082051 15.5984253,0 15.1493213,0 L0.814479638,0 C0.365375566,0 0,0.368082051 0,0.820512821 L0,13.9487179 C0,15.0797949 0.913438914,16 2.0361991,16 L15.9638009,16 C17.0865611,16 18,15.0797949 18,13.9487179 L18,2.87179487 C18,2.4193641 17.6346244,2.05128205 17.1855204,2.05128205 Z M17.1855204,13.9487179 C17.1855204,14.6273641 16.637457,15.1794872 15.9638009,15.1794872 L2.0361991,15.1794872 C1.36254299,15.1794872 0.814479638,14.6273641 0.814479638,13.9487179 L0.814479638,0.820512821 L15.1493213,0.820512821 L15.1493213,13.3333333 C15.1493213,13.8988718 15.6060407,14.3589744 16.1674208,14.3589744 C16.3922986,14.3589744 16.5746606,14.1753026 16.5746606,13.9487179 C16.5746606,13.7221333 16.3922986,13.5384615 16.1674208,13.5384615 C16.0551448,13.5384615 15.9638009,13.446441 15.9638009,13.3333333 L15.9638009,2.87179487 L17.1855204,2.87179487 L17.1855204,13.9487179 Z" id="Shape" fill-rule="nonzero"></path>
                </g>
            </g>
        </g>
    </g>
</svg>