<?xml version="1.0" encoding="UTF-8"?>
<svg width="19px" height="19px" viewBox="0 0 19 19" version="1.1" xmlns="http://www.w3.org/2000/svg" xmlns:xlink="http://www.w3.org/1999/xlink">
    <!-- Generator: Sketch 52.6 (67491) - http://www.bohemiancoding.com/sketch -->
    <title>picture</title>
    <desc>Created with Sketch.</desc>
    <g id="web-admin-English" stroke="none" stroke-width="1" fill="none" fill-rule="evenodd">
        <g id="Home-Page" transform="translate(-98.000000, -605.000000)" fill="#FFFFFF" fill-rule="nonzero">
            <g id="Group-17" transform="translate(57.000000, 605.000000)">
                <g id="picture" transform="translate(41.000000, 0.000000)">
                    <path d="M4.94,8.81965385 C6.10698,8.81965385 7.05622,7.90692308 7.05622,6.78519231 C7.05622,5.66273077 6.10698,4.75 4.94,4.75 C3.77302,4.75 2.82378,5.66273077 2.82378,6.78482692 C2.82378,7.90692308 3.77302,8.81965385 4.94,8.81965385 Z M4.94,5.48076923 C5.68784,5.48076923 6.29622,6.06611538 6.29622,6.78482692 C6.29622,7.50353846 5.68784,8.08888462 4.94,8.08888462 C4.19216,8.08888462 3.58378,7.50390385 3.58378,6.78519231 C3.58378,6.06648077 4.19216,5.48076923 4.94,5.48076923 Z" id="Shape"></path>
                    <path d="M0,0 L0,14.6153846 L0,19 L19,19 L19,14.6153846 L19,0 L0,0 Z M0.76,0.730769231 L18.24,0.730769231 L18.24,10.4964038 L14.31688,7.03840385 C14.2424,6.973 14.14436,6.94048077 14.04328,6.94267308 C13.94258,6.94705769 13.84758,6.98980769 13.77956,7.06142308 L10.05784,10.9809038 L8.2555,9.24788462 C8.11338,9.11159615 7.88614,9.10465385 7.73566,9.23180769 L1.37636,14.6153846 L0.76,14.6153846 L0.76,0.730769231 Z M18.24,18.2692308 L0.76,18.2692308 L0.76,15.3461538 L18.24,15.3461538 L18.24,18.2692308 Z M2.52662,14.6153846 L7.96974,10.0075192 L11.8845,13.7713462 C12.03308,13.9142115 12.27324,13.9142115 12.42182,13.7713462 C12.5704,13.6284808 12.5704,13.3975577 12.42182,13.2546923 L10.59516,11.4982885 L14.08394,7.82471154 L18.24,11.4876923 L18.24,14.6153846 L2.52662,14.6153846 Z" id="Shape"></path>
                </g>
            </g>
        </g>
    </g>
</svg>