<?xml version="1.0" encoding="UTF-8"?>
<svg width="18px" height="18px" viewBox="0 0 18 18" version="1.1" xmlns="http://www.w3.org/2000/svg" xmlns:xlink="http://www.w3.org/1999/xlink">
    <!-- Generator: Sketch 52.6 (67491) - http://www.bohemiancoding.com/sketch -->
    <title>folder</title>
    <desc>Created with Sketch.</desc>
    <g id="web-admin-English" stroke="none" stroke-width="1" fill="none" fill-rule="evenodd">
        <g id="Home-Page" transform="translate(-58.000000, -505.000000)" fill="#FFFFFF">
            <g id="folder" transform="translate(58.000000, 505.000000)">
                <path d="M17.247,8.1 L16.2,8.1 L16.2,6.2196 C16.2,5.7678 15.8322,5.4 15.3804,5.4 L14.4,5.4 L14.4,4.6758 L14.2515,4.5273 C14.2512,4.5273 14.2512,4.527 14.2512,4.5267 L12.0624,2.3379 L9.7242,0 L2.4,0 L2.4,3.3 L0.8196,3.3 C0.3678,3.3 0,3.6678 0,4.1196 L0,17.2257 L0.0018,17.2257 C0.0003,17.3946 0.0528,17.5599 0.1584,17.6982 C0.3054,17.8902 0.528,18 0.7695,18 L14.1972,18 C14.544,18 14.8494,17.7663 14.9322,17.4561 L18,9.0447 L18,8.9916 C18,8.475 17.6832,8.1 17.247,8.1 Z M15.3804,6 C15.5013,6 15.6,6.0984 15.6,6.2196 L15.6,8.1 L14.4,8.1 L14.4,6 L15.3804,6 Z M9.9,1.0245 L13.3758,4.5 L9.9,4.5 L9.9,1.0245 Z M3,0.6 L9.3,0.6 L9.3,5.1 L13.8,5.1 L13.8,5.4 L13.8,8.1 L3.8193,8.1 C3.7764,8.1 3.7341,8.1036 3.6927,8.1105 C3.4005,8.1591 3.1569,8.3721 3.0843,8.6439 L3,8.8755 L3,3.3 L3,0.6 Z M0.6,4.1196 C0.6,3.9984 0.6987,3.9 0.8196,3.9 L2.4,3.9 L2.4,10.5105 L0.6,15.4197 L0.6,4.1196 Z M14.3607,17.2749 C14.3409,17.3484 14.2737,17.4 14.1972,17.4 L0.7695,17.4 C0.6966,17.4 0.654,17.3583 0.6351,17.3334 C0.6162,17.3088 0.5871,17.2566 0.5982,17.211 L2.4,12.2694 L2.4,12.2709 L3.648,8.8497 L3.6558,8.8251 C3.6756,8.7516 3.7431,8.7 3.8193,8.7 L13.8,8.7 L14.4,8.7 L16.2,8.7 L17.247,8.7 C17.361,8.7 17.3901,8.8638 17.3976,8.9457 L14.3607,17.2749 Z" id="Shape" fill-rule="nonzero"></path>
                <path d="M4.8,5.1 L7.8,5.1 C7.9656,5.1 8.1,4.9659 8.1,4.8 C8.1,4.6341 7.9656,4.5 7.8,4.5 L4.8,4.5 C4.6344,4.5 4.5,4.6341 4.5,4.8 C4.5,4.9659 4.6344,5.1 4.8,5.1 Z" id="Path"></path>
                <path d="M4.8,3 L7.8,3 C7.9656,3 8.1,2.8659 8.1,2.7 C8.1,2.5341 7.9656,2.4 7.8,2.4 L4.8,2.4 C4.6344,2.4 4.5,2.5341 4.5,2.7 C4.5,2.8659 4.6344,3 4.8,3 Z" id="Path"></path>
                <path d="M4.8,7.2 L12,7.2 C12.1656,7.2 12.3,7.0659 12.3,6.9 C12.3,6.7341 12.1656,6.6 12,6.6 L4.8,6.6 C4.6344,6.6 4.5,6.7341 4.5,6.9 C4.5,7.0659 4.6344,7.2 4.8,7.2 Z" id="Path"></path>
            </g>
        </g>
    </g>
</svg>