<?xml version="1.0" encoding="UTF-8"?>
<svg width="34px" height="34px" viewBox="0 0 34 34" version="1.1" xmlns="http://www.w3.org/2000/svg" xmlns:xlink="http://www.w3.org/1999/xlink">
    <!-- Generator: Sketch 52.6 (67491) - http://www.bohemiancoding.com/sketch -->
    <title>conversation</title>
    <desc>Created with Sketch.</desc>
    <g id="Page-1" stroke="none" stroke-width="1" fill="none" fill-rule="evenodd">
        <g id="more" transform="translate(-44.000000, -481.000000)" fill="#000000">
            <g id="Group-7" transform="translate(28.000000, 473.000000)">
                <g id="Group-4" transform="translate(16.000000, 8.000000)">
                    <g id="conversation">
                        <path d="M22.9765625,21.1835938 C22.6098672,21.1835938 22.3125,21.4808945 22.3125,21.8476562 L22.3125,26.4296875 C22.3125,28.2605078 20.8230078,29.75 18.9921875,29.75 L11.8224375,29.75 C11.4558086,29.75 11.1586406,30.0470352 11.158375,30.4135977 L11.1574453,31.7338867 L9.57246094,30.1489687 C9.46986328,29.9134258 9.23505078,29.75 8.96344922,29.75 L4.6484375,29.75 C2.81761719,29.75 1.328125,28.2605078 1.328125,26.4296875 L1.328125,16.203125 C1.328125,14.3723047 2.81761719,12.8828125 4.6484375,12.8828125 L11.3554688,12.8828125 C11.7221641,12.8828125 12.0195313,12.5855117 12.0195313,12.21875 C12.0195313,11.8519883 11.7221641,11.5546875 11.3554688,11.5546875 L4.6484375,11.5546875 C2.08528906,11.5546875 0,13.6399766 0,16.203125 L0,26.4296875 C0,28.9928359 2.08528906,31.078125 4.6484375,31.078125 L8.62338281,31.078125 L11.3507539,33.8054961 C11.4777891,33.9325313 11.6475898,34 11.8204453,34 C11.9059102,34 11.9921719,33.9834648 12.0741836,33.9495313 C12.3223438,33.8468672 12.4841758,33.6048828 12.484375,33.3364023 L12.4859688,31.078125 L18.9921875,31.078125 C21.5553359,31.078125 23.640625,28.9928359 23.640625,26.4296875 L23.640625,21.8476562 C23.640625,21.4808945 23.3432578,21.1835938 22.9765625,21.1835938 Z" id="Path"></path>
                        <path d="M24.3481836,0 L22.6675078,0 C17.3454453,0 13.015625,4.32982031 13.015625,9.65188281 C13.015625,14.9739453 17.3454453,19.3036992 22.6674414,19.3036992 L24.3481172,19.3036992 C25.178793,19.3036992 26.0009688,19.1981797 26.7978438,18.9896641 L29.2805742,21.471 C29.4076094,21.5979023 29.5773438,21.6653711 29.7501328,21.6653711 C29.8357305,21.6653711 29.9220586,21.6488359 30.0042031,21.6147695 C30.2522969,21.5119727 30.4140625,21.2698555 30.4140625,21.0013086 L30.4140625,17.1593086 C31.465207,16.3080469 32.3383828,15.2327305 32.9511797,14.0314414 C33.6471836,12.6670586 34,11.1935703 34,9.65188281 C34,4.32982031 29.6701797,0 24.3481836,0 Z M29.3504336,16.3050586 C29.1839531,16.4305 29.0859375,16.6269297 29.0859375,16.8355117 L29.0859375,19.398793 L27.4609102,17.7746289 C27.3344727,17.6483242 27.1648711,17.5802578 26.991418,17.5802578 C26.9263398,17.5802578 26.8605977,17.5898867 26.7964492,17.6096094 C26.0060156,17.8525234 25.1823125,17.9756406 24.3481836,17.9756406 L22.6675078,17.9756406 C18.077707,17.9756406 14.34375,14.2416172 14.34375,9.65188281 C14.34375,5.06214844 18.0777734,1.328125 22.6675078,1.328125 L24.3481836,1.328125 C28.937918,1.328125 32.671875,5.06214844 32.671875,9.65188281 C32.671875,12.2902695 31.4612891,14.715293 29.3504336,16.3050586 Z" id="Shape" fill-rule="nonzero"></path>
                        <path d="M26.4982852,7.26623828 C26.4024609,5.87602344 25.2817891,4.75535156 23.8915078,4.65952734 C23.1033984,4.60540625 22.3512813,4.87123047 21.7756055,5.40865625 C21.207832,5.93864453 20.8822422,6.68783984 20.8822422,7.46419531 C20.8822422,7.83095703 21.1796094,8.12825781 21.5463047,8.12825781 C21.913,8.12825781 22.2103672,7.83095703 22.2103672,7.46419531 C22.2103672,7.04855859 22.3778438,6.66333594 22.6818516,6.37958203 C22.9855938,6.09609375 23.3825703,5.95577734 23.8002656,5.98459766 C24.5325938,6.03506641 25.1228789,6.62535156 25.1733477,7.35761328 C25.2243477,8.09717969 24.7391172,8.75075 24.0196719,8.91171875 C23.4367578,9.04214062 23.0296875,9.5486875 23.0296875,10.1434883 L23.0296875,11.7388984 C23.0296875,12.1056602 23.3270547,12.4029609 23.69375,12.4029609 C24.0605117,12.4029609 24.3578125,12.1056602 24.3577461,11.7388984 L24.3577461,10.1965469 C25.695832,9.87328125 26.5935781,8.64888281 26.4982852,7.26623828 Z" id="Path"></path>
                        <path d="M24.1632422,13.8961719 C24.0397266,13.7726562 23.8683984,13.7016016 23.69375,13.7016016 C23.5191016,13.7016016 23.3477734,13.7726562 23.2242578,13.8961719 C23.1007422,14.0196875 23.0296875,14.1910156 23.0296875,14.3656641 C23.0296875,14.5409766 23.1008086,14.7123047 23.2242578,14.8358203 C23.3477734,14.9593359 23.5191016,15.0297266 23.69375,15.0297266 C23.8683984,15.0297266 24.0397266,14.9593359 24.1632422,14.8358203 C24.2867578,14.7116406 24.3578125,14.5409766 24.3578125,14.3656641 C24.3578125,14.1910156 24.2866914,14.0196875 24.1632422,13.8961719 Z" id="Path"></path>
                        <path d="M18.2617188,20.5859375 L4.25,20.5859375 C3.88330469,20.5859375 3.5859375,20.8832383 3.5859375,21.25 C3.5859375,21.6167617 3.88330469,21.9140625 4.25,21.9140625 L18.2617188,21.9140625 C18.6284805,21.9140625 18.9257812,21.6167617 18.9257812,21.25 C18.9257812,20.8832383 18.6284141,20.5859375 18.2617188,20.5859375 Z" id="Path"></path>
                        <path d="M18.7311445,24.4992578 C18.6076953,24.3757422 18.4363672,24.3046875 18.2617187,24.3046875 C18.0870703,24.3046875 17.9157422,24.3757422 17.7922266,24.4992578 C17.6686445,24.6227734 17.5976562,24.7941016 17.5976562,24.96875 C17.5976562,25.1433984 17.6687109,25.3147266 17.7922266,25.4382422 C17.9157422,25.5617578 18.0870703,25.6328125 18.2617187,25.6328125 C18.4363672,25.6328125 18.6076953,25.5617578 18.7311445,25.4382422 C18.8547266,25.3147266 18.9257812,25.1440625 18.9257812,24.96875 C18.9257812,24.7941016 18.8546602,24.6227734 18.7311445,24.4992578 Z" id="Path"></path>
                        <path d="M15.6497617,24.3046875 L4.25,24.3046875 C3.88330469,24.3046875 3.5859375,24.6019883 3.5859375,24.96875 C3.5859375,25.3355117 3.88330469,25.6328125 4.25,25.6328125 L15.6497617,25.6328125 C16.0165234,25.6328125 16.3138242,25.3355117 16.3138242,24.96875 C16.3138242,24.6019883 16.016457,24.3046875 15.6497617,24.3046875 Z" id="Path"></path>
                        <path d="M13.9453125,16.8671875 L4.25,16.8671875 C3.88330469,16.8671875 3.5859375,17.1644883 3.5859375,17.53125 C3.5859375,17.8980117 3.88330469,18.1953125 4.25,18.1953125 L13.9453125,18.1953125 C14.3120742,18.1953125 14.609375,17.8980117 14.609375,17.53125 C14.609375,17.1644883 14.3120078,16.8671875 13.9453125,16.8671875 Z" id="Path"></path>
                    </g>
                </g>
            </g>
        </g>
    </g>
</svg>