<?xml version="1.0" encoding="UTF-8"?>
<svg width="20px" height="20px" viewBox="0 0 20 20" version="1.1" xmlns="http://www.w3.org/2000/svg" xmlns:xlink="http://www.w3.org/1999/xlink">
    <!-- Generator: Sketch 52.6 (67491) - http://www.bohemiancoding.com/sketch -->
    <title>conversation</title>
    <desc>Created with Sketch.</desc>
    <g id="web-admin-English" stroke="none" stroke-width="1" fill="none" fill-rule="evenodd">
        <g id="Home-Page" transform="translate(-29.000000, -320.000000)" fill="#FFFFFF">
            <g id="conversation" transform="translate(29.000000, 320.000000)">
                <path d="M13.515625,12.4609375 C13.2999219,12.4609375 13.125,12.6358203 13.125,12.8515625 L13.125,15.546875 C13.125,16.6238281 12.2488281,17.5 11.171875,17.5 L6.954375,17.5 C6.73871094,17.5 6.56390625,17.6747266 6.56375,17.8903516 L6.56320313,18.6669922 L5.63085938,17.7346875 C5.57050781,17.5961328 5.43238281,17.5 5.27261719,17.5 L2.734375,17.5 C1.65742188,17.5 0.78125,16.6238281 0.78125,15.546875 L0.78125,9.53125 C0.78125,8.45429688 1.65742188,7.578125 2.734375,7.578125 L6.6796875,7.578125 C6.89539063,7.578125 7.0703125,7.40324219 7.0703125,7.1875 C7.0703125,6.97175781 6.89539063,6.796875 6.6796875,6.796875 L2.734375,6.796875 C1.22664063,6.796875 0,8.02351562 0,9.53125 L0,15.546875 C0,17.0546094 1.22664063,18.28125 2.734375,18.28125 L5.07257813,18.28125 L6.67691406,19.8855859 C6.75164063,19.9603125 6.85152344,20 6.95320313,20 C7.00347656,20 7.05421875,19.9902734 7.10246094,19.9703125 C7.2484375,19.9099219 7.34363281,19.7675781 7.34375,19.6096484 L7.3446875,18.28125 L11.171875,18.28125 C12.6796094,18.28125 13.90625,17.0546094 13.90625,15.546875 L13.90625,12.8515625 C13.90625,12.6358203 13.7313281,12.4609375 13.515625,12.4609375 Z" id="Path"></path>
                <path d="M14.3224609,0 L13.3338281,0 C10.2032031,0 7.65625,2.54695312 7.65625,5.67757812 C7.65625,8.80820312 10.2032031,11.3551172 13.3337891,11.3551172 L14.3224219,11.3551172 C14.8110547,11.3551172 15.2946875,11.2930469 15.7634375,11.1703906 L17.2238672,12.63 C17.2985938,12.7046484 17.3984375,12.7443359 17.5000781,12.7443359 C17.5504297,12.7443359 17.6012109,12.7346094 17.6495313,12.7145703 C17.7954688,12.6541016 17.890625,12.5116797 17.890625,12.3537109 L17.890625,10.0937109 C18.5089453,9.59296875 19.0225781,8.96042969 19.3830469,8.25378906 C19.7924609,7.45121094 20,6.58445312 20,5.67757812 C20,2.54695312 17.4530469,0 14.3224609,0 Z M17.2649609,9.59121094 C17.1670313,9.665 17.109375,9.78054687 17.109375,9.90324219 L17.109375,11.4110547 L16.1534766,10.4556641 C16.0791016,10.3813672 15.9793359,10.3413281 15.8773047,10.3413281 C15.8390234,10.3413281 15.8003516,10.3469922 15.7626172,10.3585938 C15.2976563,10.5014844 14.813125,10.5739063 14.3224609,10.5739063 L13.3338281,10.5739063 C10.6339453,10.5739063 8.4375,8.37742187 8.4375,5.67757812 C8.4375,2.97773437 10.6339844,0.78125 13.3338281,0.78125 L14.3224609,0.78125 C17.0223047,0.78125 19.21875,2.97773437 19.21875,5.67757813 C19.21875,7.22957031 18.5066406,8.65605469 17.2649609,9.59121094 Z" id="Shape" fill-rule="nonzero"></path>
                <path d="M15.5872266,4.27425781 C15.5308594,3.45648438 14.8716406,2.79726563 14.0538281,2.74089844 C13.5902344,2.7090625 13.1478125,2.86542969 12.8091797,3.1815625 C12.4751953,3.49332031 12.2836719,3.93402344 12.2836719,4.39070312 C12.2836719,4.60644531 12.4585938,4.78132812 12.6742969,4.78132812 C12.89,4.78132812 13.0649219,4.60644531 13.0649219,4.39070312 C13.0649219,4.14621094 13.1634375,3.91960938 13.3422656,3.75269531 C13.5209375,3.5859375 13.7544531,3.50339844 14.0001563,3.52035156 C14.4309375,3.55003906 14.7781641,3.89726563 14.8078516,4.32800781 C14.8378516,4.76304687 14.5524219,5.1475 14.1292188,5.2421875 C13.7863281,5.31890625 13.546875,5.616875 13.546875,5.96675781 L13.546875,6.90523437 C13.546875,7.12097656 13.7217969,7.29585937 13.9375,7.29585937 C14.1532422,7.29585937 14.328125,7.12097656 14.3280859,6.90523437 L14.3280859,5.99796875 C15.1151953,5.8078125 15.6432813,5.08757812 15.5872266,4.27425781 Z" id="Path"></path>
                <path d="M14.2136719,8.17421875 C14.1410156,8.1015625 14.0402344,8.05976562 13.9375,8.05976562 C13.8347656,8.05976562 13.7339844,8.1015625 13.6613281,8.17421875 C13.5886719,8.246875 13.546875,8.34765625 13.546875,8.45039062 C13.546875,8.55351562 13.5887109,8.65429687 13.6613281,8.72695312 C13.7339844,8.79960937 13.8347656,8.84101562 13.9375,8.84101562 C14.0402344,8.84101562 14.1410156,8.79960937 14.2136719,8.72695312 C14.2863281,8.65390625 14.328125,8.55351562 14.328125,8.45039062 C14.328125,8.34765625 14.2862891,8.246875 14.2136719,8.17421875 Z" id="Path"></path>
                <path d="M10.7421875,12.109375 L2.5,12.109375 C2.28429688,12.109375 2.109375,12.2842578 2.109375,12.5 C2.109375,12.7157422 2.28429688,12.890625 2.5,12.890625 L10.7421875,12.890625 C10.9579297,12.890625 11.1328125,12.7157422 11.1328125,12.5 C11.1328125,12.2842578 10.9578906,12.109375 10.7421875,12.109375 Z" id="Path"></path>
                <path d="M11.0183203,14.4113281 C10.9457031,14.3386719 10.8449219,14.296875 10.7421875,14.296875 C10.6394531,14.296875 10.5386719,14.3386719 10.4660156,14.4113281 C10.3933203,14.4839844 10.3515625,14.5847656 10.3515625,14.6875 C10.3515625,14.7902344 10.3933594,14.8910156 10.4660156,14.9636719 C10.5386719,15.0363281 10.6394531,15.078125 10.7421875,15.078125 C10.8449219,15.078125 10.9457031,15.0363281 11.0183203,14.9636719 C11.0910156,14.8910156 11.1328125,14.790625 11.1328125,14.6875 C11.1328125,14.5847656 11.0909766,14.4839844 11.0183203,14.4113281 Z" id="Path"></path>
                <path d="M9.20574219,14.296875 L2.5,14.296875 C2.28429688,14.296875 2.109375,14.4717578 2.109375,14.6875 C2.109375,14.9032422 2.28429688,15.078125 2.5,15.078125 L9.20574219,15.078125 C9.42148437,15.078125 9.59636719,14.9032422 9.59636719,14.6875 C9.59636719,14.4717578 9.42144531,14.296875 9.20574219,14.296875 Z" id="Path"></path>
                <path d="M8.203125,9.921875 L2.5,9.921875 C2.28429688,9.921875 2.109375,10.0967578 2.109375,10.3125 C2.109375,10.5282422 2.28429688,10.703125 2.5,10.703125 L8.203125,10.703125 C8.41886719,10.703125 8.59375,10.5282422 8.59375,10.3125 C8.59375,10.0967578 8.41882812,9.921875 8.203125,9.921875 Z" id="Path"></path>
            </g>
        </g>
    </g>
</svg>