<?xml version="1.0" encoding="UTF-8"?>
<svg width="37px" height="29px" viewBox="0 0 37 29" version="1.1" xmlns="http://www.w3.org/2000/svg" xmlns:xlink="http://www.w3.org/1999/xlink">
    <!-- Generator: Sketch 52.6 (67491) - http://www.bohemiancoding.com/sketch -->
    <title>Shape</title>
    <desc>Created with Sketch.</desc>
    <g id="web-admin-English" stroke="none" stroke-width="1" fill="none" fill-rule="evenodd">
        <g id="Home-Page" transform="translate(-386.000000, -103.000000)" fill="#FFFFFF" fill-rule="nonzero">
            <g id="Group" transform="translate(234.000000, 72.000000)">
                <g id="Group-2">
                    <g id="Group-4" transform="translate(24.000000, 9.000000)">
                        <g id="Group-3" transform="translate(114.000000, 7.000000)">
                            <path d="M36.0238095,19.8179385 C37.6909221,20.7849397 38.8599257,22.4213071 39.0727582,24.3207588 C39.7526521,24.6146472 40.5072399,24.7836538 41.307274,24.7836538 C44.2279832,24.7836538 46.5952381,22.5936439 46.5952381,19.8920351 C46.5952381,17.1900099 44.2279832,15 41.307274,15 C38.4144625,15.0008325 36.0679059,17.1517128 36.0238095,19.8179385 Z M32.5004497,30.1201923 C35.4196679,30.1201923 37.7857143,27.9297661 37.7857143,25.2281572 C37.7857143,22.5265484 35.4192182,20.3365385 32.5004497,20.3365385 C29.5816813,20.3365385 27.2142857,22.5269646 27.2142857,25.2285735 C27.2142857,27.9301824 29.5816813,30.1201923 32.5004497,30.1201923 Z M34.3626149,30.1201923 L29.7578176,30.1201923 C25.9264895,30.1201923 22.8095238,33.0259681 22.8095238,36.5971757 L22.8095238,41.8461664 L22.8238388,41.9283769 L23.2117278,42.0415778 C26.868044,43.1064407 30.0445784,43.4615385 32.6591354,43.4615385 C37.7658797,43.4615385 40.7258427,42.1044193 40.9082429,42.0179046 L41.2707344,41.8470273 L41.3095233,41.8470273 L41.3095233,36.5971757 C41.3109087,33.0259681 38.193943,30.1201923 34.3626149,30.1201923 Z M43.7891961,25.6730769 L39.0470119,25.6730769 C38.9957321,27.3793177 38.1857986,28.9157533 36.9047619,30.0207801 C40.4392348,30.9659142 43.0252708,33.9133708 43.0252708,37.3948088 L43.0252708,39.0144231 C47.7075487,38.8601331 50.4057293,37.6667558 50.5835313,37.5865939 L50.959743,37.4150648 L51,37.4150648 L51,32.1575676 C51,28.5821765 47.7650587,25.6730769 43.7891961,25.6730769 Z M22.8099736,24.7836538 C23.8440862,24.7836538 24.8062293,24.5043231 25.6212845,24.0285033 C25.8803749,22.4645008 26.7862917,21.0978198 28.0803944,20.1669948 C28.0857921,20.0754109 28.0952381,19.9846597 28.0952381,19.8922432 C28.0952381,17.1901031 25.7283392,15 22.8099736,15 C19.8898088,15 17.5238095,17.1901031 17.5238095,19.8922432 C17.5238095,22.5931345 19.8898088,24.7836538 22.8099736,24.7836538 Z M28.0952381,30.0313393 C26.8695251,28.929245 26.0935475,27.3972864 26.0368698,25.6972703 C25.8677583,25.6856056 25.7004899,25.6730769 25.5281528,25.6730769 L20.9335724,25.6730769 C17.1103618,25.6730769 14,28.5892418 14,32.1733164 L14,37.4427182 L14.0142846,37.5239388 L14.4013519,37.6384253 C17.3283175,38.4951297 19.9405606,38.89 22.209512,39.0144231 L22.209512,37.4232771 C22.2104336,33.9333839 24.6959582,30.9796329 28.0952381,30.0313393 Z" id="Shape"></path>
                        </g>
                    </g>
                </g>
            </g>
        </g>
    </g>
</svg>